<svg width="450" height="55" version="1.1" viewBox="0 0 450 55" xmlns="http://www.w3.org/2000/svg">
 <g transform="matrix(.90356 0 0 .90356 .7191 -1.4521)">
  <g transform="translate(0,-3.0791)">
   <path d="m8.323 44.072v-6.1931q1.6838 1.4128 3.6578 2.1289 1.9741 0.69673 3.9868 0.69673 1.1806 0 2.0515-0.21289 0.89026-0.21289 1.4709-0.5806 0.59996-0.38707 0.89026-0.89026 0.2903-0.52254 0.2903-1.1225 0-0.81285-0.46448-1.4515-0.46448-0.63867-1.2773-1.1806-0.79349-0.5419-1.8966-1.0451-1.1032-0.50319-2.3805-1.0257-3.2514-1.3547-4.8577-3.3095-1.587-1.9547-1.587-4.7223 0-2.1676 0.87091-3.7159 0.87091-1.5676 2.3611-2.574 1.5096-1.0064 3.4836-1.4709 1.9741-0.48384 4.1804-0.48384 2.1676 0 3.832 0.27095 1.6838 0.2516 3.0966 0.79349v5.7867q-0.69673-0.48384-1.5289-0.85155-0.81285-0.36772-1.6838-0.59996-0.87091-0.2516-1.7418-0.36772-0.85156-0.11612-1.6257-0.11612-1.0644 0-1.9354 0.21289-0.87091 0.19354-1.4709 0.56125t-0.92897 0.89026q-0.32901 0.50319-0.32901 1.1419 0 0.69673 0.36772 1.258 0.36772 0.5419 1.0451 1.0451 0.67737 0.48384 1.645 0.96768 0.96768 0.46448 2.1869 0.96768 1.6644 0.69673 2.9804 1.4902 1.3354 0.77414 2.2837 1.7612 0.94832 0.98703 1.4515 2.2644 0.50319 1.258 0.50319 2.9417 0 2.3224-0.89026 3.9094-0.87091 1.5676-2.3805 2.5547-1.5096 0.96768-3.5223 1.3935-1.9934 0.42578-4.2191 0.42578-2.2837 0-4.3545-0.38707-2.0515-0.38707-3.561-1.1612zm40.855-18.754-8.0511 21.405q-2.903 7.7221-8.7478 7.7221-2.2257 0-3.6578-0.50319v-4.8771q1.2193 0.71608 2.6514 0.71608 2.3611 0 3.2901-2.2257l1.0451-2.4579-8.0511-19.779h6.7737l3.6965 12.057q0.34836 1.1225 0.5419 2.6514h0.07741q0.17418-1.1225 0.63867-2.6127l3.7352-12.096zm1.1612 19.295v-4.9545q1.5096 0.90962 2.9998 1.3547 1.5096 0.44513 2.845 0.44513 1.6257 0 2.5547-0.44513 0.94832-0.44513 0.94832-1.3547 0-0.5806-0.42578-0.96768-0.42578-0.38707-1.1032-0.67737-0.65802-0.2903-1.4515-0.52254-0.79349-0.23224-1.5289-0.52254-1.1806-0.44513-2.0902-0.94832-0.89026-0.52254-1.5096-1.1999-0.59996-0.67737-0.92897-1.5676-0.30966-0.89026-0.30966-2.1095 0-1.6644 0.71608-2.8643 0.73543-1.1999 1.9354-1.9547 1.2193-0.77414 2.7676-1.1225 1.5676-0.36772 3.2514-0.36772 1.316 0 2.6708 0.21289 1.3547 0.19354 2.6708 0.58061v4.7223q-1.1612-0.67737-2.4966-1.0064-1.316-0.34836-2.5934-0.34836-0.59996 0-1.1419 0.11612-0.52254 0.09677-0.92897 0.30966-0.40642 0.19354-0.63867 0.52254-0.23224 0.30966-0.23224 0.71608 0 0.5419 0.34836 0.92897t0.90962 0.67737q0.56125 0.27095 1.2386 0.50319 0.69673 0.21289 1.3741 0.44513 1.2193 0.42578 2.2063 0.92897t1.6838 1.1806q0.71608 0.67737 1.0838 1.587 0.38707 0.90962 0.38707 2.1676 0 1.7612-0.77414 3.0191-0.75479 1.2386-2.0321 2.0321-1.258 0.77414-2.9224 1.1225-1.645 0.36772-3.4256 0.36772-3.2707 0-6.0577-1.0064zm30.714 0.2903q-1.3547 0.71608-4.0836 0.71608-6.4641 0-6.4641-6.7157v-9.0768h-3.2127v-4.5094h3.2127v-4.2771l6.0964-1.7418v6.0189h4.4513v4.5094h-4.4513v8.0124q0 3.0966 2.4579 3.0966 0.96768 0 1.9934-0.56125zm20.941-7.9349h-12.928q0.30966 4.3158 5.4383 4.3158 3.2707 0 5.748-1.5483v4.4126q-2.7482 1.4709-7.1414 1.4709-4.7997 0-7.4511-2.6514-2.6514-2.6708-2.6514-7.4318 0-4.9351 2.8643-7.8188 2.8643-2.8837 7.0447-2.8837 4.3352 0 6.6963 2.574 2.3805 2.574 2.3805 6.9866zm-5.6706-3.7546q0-4.2578-3.4449-4.2578-1.4709 0-2.5547 1.2193-1.0644 1.2193-1.2967 3.0385zm40.778 11.922h-6.0964v-11.302q0-4.3158-3.174-4.3158-1.5096 0-2.4579 1.2967-0.94833 1.2967-0.94833 3.232v11.09h-6.1157v-11.419q0-4.1997-3.1159-4.1997-1.5676 0-2.516 1.2386-0.92897 1.2386-0.92897 3.3675v11.012h-6.1157v-19.818h6.1157v3.0966h0.0774q0.94832-1.587 2.6514-2.574 1.7225-1.0064 3.7546-1.0064 4.1997 0 5.748 3.6965 2.2644-3.6965 6.6576-3.6965 6.4641 0 6.4641 7.9736zm7.9349-22.953q-1.5483 0-2.5353-0.90962-0.98703-0.92897-0.98703-2.2644 0-1.3741 0.98703-2.245 0.98703-0.87091 2.5353-0.87091 1.5676 0 2.5353 0.87091 0.98703 0.87091 0.98703 2.245 0 1.3935-0.98703 2.2837-0.96767 0.89026-2.5353 0.89026zm3.0192 22.953h-6.1157v-19.818h6.1157zm20.166-0.71608q-2.0708 1.1999-5.9802 1.1999-4.5674 0-7.393-2.7676-2.8256-2.7676-2.8256-7.1414 0-5.0513 3.0192-7.9543 3.0385-2.9224 8.1091-2.9224 3.503 0 5.0706 0.92897v5.1867q-1.916-1.4322-4.2771-1.4322-2.6321 0-4.1804 1.5483-1.5289 1.5289-1.5289 4.2384 0 2.6321 1.4709 4.1417 1.4709 1.4902 4.0449 1.4902 2.2837 0 4.4707-1.4322zm47.165 0.71608h-6.1738v-16.605q0-2.6901 0.23225-5.9415h-0.15483q-0.48384 2.5547-0.87091 3.6772l-6.5028 18.87h-5.1093l-6.6189-18.676q-0.27095-0.75479-0.87091-3.8707h-0.17418q0.25159 4.1029 0.25159 7.1995v15.347h-5.6319v-27.753h9.1542l5.6706 16.45q0.67738 1.9741 0.98703 3.9675h0.11612q0.52255-2.3031 1.1032-4.0062l5.6706-16.412h8.922zm23.515-8.1672h-12.928q0.30966 4.3158 5.4383 4.3158 3.2707 0 5.748-1.5483v4.4126q-2.7482 1.4709-7.1414 1.4709-4.7997 0-7.4511-2.6514-2.6514-2.6708-2.6514-7.4318 0-4.9351 2.8643-7.8188t7.0447-2.8837q4.3352 0 6.6963 2.574 2.3805 2.574 2.3805 6.9866zm-5.6706-3.7546q0-4.2578-3.4449-4.2578-1.4709 0-2.5547 1.2193-1.0644 1.2193-1.2967 3.0385zm28.701 11.922h-6.1157v-2.7288h-0.0774q-2.0902 3.2127-6.1351 3.2127-3.7159 0-5.9802-2.6127-2.2644-2.6321-2.2644-7.335 0-4.9158 2.4966-7.8769 2.4966-2.9611 6.5415-2.9611 3.832 0 5.3416 2.7482h0.0774v-11.786h6.1157zm-5.9996-9.6381v-1.4902q0-1.9354-1.1225-3.2127-1.1225-1.2773-2.9224-1.2773-2.0321 0-3.174 1.6063-1.1419 1.587-1.1419 4.3739 0 2.6127 1.1032 4.0255 1.1032 1.4128 3.0579 1.4128 1.8579 0 3.0192-1.4902 1.1806-1.4902 1.1806-3.9481zm14.244-13.315q-1.5483 0-2.5353-0.90962-0.98703-0.92897-0.98703-2.2644 0-1.3741 0.98703-2.245 0.98703-0.87091 2.5353-0.87091 1.5676 0 2.5353 0.87091 0.98703 0.87091 0.98703 2.245 0 1.3935-0.98703 2.2837-0.96767 0.89026-2.5353 0.89026zm3.0192 22.953h-6.1157v-19.818h6.1157zm20.166-0.71608q-2.0708 1.1999-5.9802 1.1999-4.5674 0-7.393-2.7676-2.8256-2.7676-2.8256-7.1414 0-5.0513 3.0192-7.9543 3.0385-2.9224 8.1091-2.9224 3.503 0 5.0706 0.92897v5.1867q-1.916-1.4322-4.2771-1.4322-2.6321 0-4.1804 1.5483-1.5289 1.5289-1.5289 4.2384 0 2.6321 1.4709 4.1417 1.4709 1.4902 4.0449 1.4902 2.2837 0 4.4707-1.4322zm7.1027-22.237q-1.5483 0-2.5353-0.90962-0.98703-0.92897-0.98703-2.2644 0-1.3741 0.98703-2.245 0.98703-0.87091 2.5353-0.87091 1.5676 0 2.5353 0.87091 0.98703 0.87091 0.98703 2.245 0 1.3935-0.98703 2.2837-0.96767 0.89026-2.5353 0.89026zm3.0192 22.953h-6.1157v-19.818h6.1157zm24.289 0h-6.0964v-11.012q0-4.6061-3.2901-4.6061-1.587 0-2.6127 1.2193-1.0257 1.2193-1.0257 3.0966v11.302h-6.1157v-19.818h6.1157v3.1353h0.0774q2.187-3.6191 6.3673-3.6191 6.5802 0 6.5802 8.1672zm22.644-8.1672h-12.928q0.30966 4.3158 5.4383 4.3158 3.2708 0 5.748-1.5483v4.4126q-2.7482 1.4709-7.1414 1.4709-4.7997 0-7.4511-2.6514-2.6514-2.6708-2.6514-7.4318 0-4.9351 2.8643-7.8188t7.0447-2.8837q4.3352 0 6.6963 2.574 2.3805 2.574 2.3805 6.9866zm-5.6706-3.7546q0-4.2578-3.4449-4.2578-1.4709 0-2.5547 1.2193-1.0644 1.2193-1.2967 3.0385zm20.844 11.922v-27.753h9.8316q14.786 0 14.786 13.528 0 6.4834-4.0449 10.354-4.0255 3.8707-10.741 3.8707zm6.2512-22.663v17.592h3.0966q4.0642 0 6.3673-2.4385 2.3224-2.4385 2.3224-6.6383 0-3.9675-2.3031-6.2318-2.2837-2.2837-6.4254-2.2837zm31.817 23.147q-4.9545 0-7.7995-2.7676-2.8256-2.7869-2.8256-7.5479 0-4.9158 2.9417-7.6833 2.9417-2.7869 7.9543-2.7869 4.9351 0 7.7414 2.7869 2.8063 2.7676 2.8063 7.335 0 4.9351-2.903 7.7995-2.8837 2.8643-7.9156 2.8643zm0.15483-16.102q-2.1676 0-3.3675 1.4902-1.1999 1.4902-1.1999 4.2191 0 5.7093 4.6061 5.7093 4.3932 0 4.3932-5.8641 0-5.5545-4.432-5.5545zm29.65 14.902q-2.0708 1.1999-5.9802 1.1999-4.5674 0-7.393-2.7676-2.8256-2.7676-2.8256-7.1414 0-5.0513 3.0192-7.9543 3.0385-2.9224 8.1091-2.9224 3.503 0 5.0706 0.92897v5.1867q-1.916-1.4322-4.2771-1.4322-2.6321 0-4.1804 1.5483-1.5289 1.5289-1.5289 4.2384 0 2.6321 1.4709 4.1417 1.4709 1.4902 4.0449 1.4902 2.2837 0 4.4707-1.4322zm15.986 0.48384q-1.3547 0.71608-4.0836 0.71608-6.4641 0-6.4641-6.7157v-9.0768h-3.2127v-4.5094h3.2127v-4.2771l6.0964-1.7418v6.0189h4.4513v4.5094h-4.4513v8.0124q0 3.0966 2.4579 3.0966 0.96768 0 1.9934-0.56125zm12.58 0.71608q-4.9545 0-7.7995-2.7676-2.8256-2.7869-2.8256-7.5479 0-4.9158 2.9417-7.6833 2.9417-2.7869 7.9543-2.7869 4.9351 0 7.7414 2.7869 2.8063 2.7676 2.8063 7.335 0 4.9351-2.903 7.7995-2.8837 2.8643-7.9156 2.8643zm0.15482-16.102q-2.1676 0-3.3675 1.4902-1.1999 1.4902-1.1999 4.2191 0 5.7093 4.6061 5.7093 4.3932 0 4.3932-5.8641 0-5.5545-4.432-5.5545zm27.559 1.316q-1.1032-0.59996-2.574-0.59996-1.9934 0-3.1159 1.4709-1.1225 1.4515-1.1225 3.9675v9.4639h-6.1157v-19.818h6.1157v3.6772h0.0774q1.4515-4.0255 5.2254-4.0255 0.96767 0 1.5096 0.23224z" fill="currentColor" stroke-width="1.6515" aria-label="Systemic Medicine Doctor "/>
  </g>
 </g>
</svg>
