<svg
   version="1.1"
   id="svg1"
   viewBox="0 0 150 150"
   sodipodi:docname="logo.svg"
   xmlns:inkscape="http://www.inkscape.org/namespaces/inkscape"
   xmlns:sodipodi="http://sodipodi.sourceforge.net/DTD/sodipodi-0.dtd"
   xmlns="http://www.w3.org/2000/svg"
   xmlns:svg="http://www.w3.org/2000/svg">

  <g
     inkscape:groupmode="layer"
     inkscape:label="Image"
     id="g1">
    <g
       id="g19"
       transform="translate(-181.00148,24.247315)">
      <path
         d="m 276.50305,13.000005 a 37.751438,37.751438 0 0 0 -37.75144,37.751438 37.751438,37.751438 0 0 0 0.21199,2.967763 32.088722,32.088722 0 0 1 31.87674,-29.393769 32.088722,32.088722 0 0 1 32.08872,32.088722 32.088722,32.088722 0 0 1 -29.39377,31.876738 37.751438,37.751438 0 0 0 2.96776,0.211984 37.751438,37.751438 0 0 0 37.75144,-37.751438 37.751438,37.751438 0 0 0 -37.75144,-37.751438 z"
         fill="currentColor" 
         style="stroke-width:0.439334"
         id="path18" />
      <path
         d="m 230.50705,88.173737 a 37.751438,37.751438 0 0 0 42.41269,-32.426941 37.751438,37.751438 0 0 0 0.18238,-2.969724 32.088722,32.088722 0 0 1 -35.48424,24.919653 32.088722,32.088722 0 0 1 -27.56289,-36.050781 32.088722,32.088722 0 0 1 33.35147,-27.709202 37.751438,37.751438 0 0 0 -2.91367,-0.602623 37.751438,37.751438 0 0 0 -42.41269,32.426936 37.751438,37.751438 0 0 0 32.42695,42.412677 z"
         style="stroke-width:0.439334"
         fill="currentColor" 
         id="path18-4" />
    </g>
  </g>
</svg>
