<?xml version="1.0" encoding="UTF-8" standalone="no"?>
<!-- Created with Inkscape (http://www.inkscape.org/) -->

<svg
   width="100mm"
   height="100mm"
   viewBox="0 0 100 100"
   version="1.1"
   id="svg1"
   inkscape:version="1.4 (86a8ad7, 2024-10-11)"
   sodipodi:docname="logo.svg"
   xmlns:inkscape="http://www.inkscape.org/namespaces/inkscape"
   xmlns:sodipodi="http://sodipodi.sourceforge.net/DTD/sodipodi-0.dtd"
   xmlns="http://www.w3.org/2000/svg"
   xmlns:svg="http://www.w3.org/2000/svg">
  <sodipodi:namedview
     id="namedview1"
     pagecolor="#ffffff"
     bordercolor="#000000"
     borderopacity="0.25"
     inkscape:showpageshadow="2"
     inkscape:pageopacity="0.0"
     inkscape:pagecheckerboard="0"
     inkscape:deskcolor="#d1d1d1"
     inkscape:document-units="mm"
     inkscape:zoom="0.73"
     inkscape:cx="195.20548"
     inkscape:cy="232.19178"
     inkscape:window-width="1920"
     inkscape:window-height="991"
     inkscape:window-x="-9"
     inkscape:window-y="-9"
     inkscape:window-maximized="1"
     inkscape:current-layer="layer1" />
  <defs
     id="defs1" />
  <g
     inkscape:label="图层 1"
     inkscape:groupmode="layer"
     id="layer1">
    <path
       id="rect1"
       style="fill:currentColor;stroke-width:0.968904"
       d="m 5.66033,5.66007 v 23.47144 h 4.935616 V 10.59569 H 89.40406 v 18.53582 h 4.93561 V 5.66007 Z m 0,65.20842 V 94.33993 H 94.33967 V 70.86849 H 89.40406 V 89.40431 H 10.595946 V 70.86849 Z" />
    <path
       d="m 5.722402,57.31417 q 3.5618477,2.952334 8.095109,2.952334 2.571387,0 3.866604,-0.876177 1.295218,-0.895224 1.295218,-2.285678 0,-1.19998 -1.028555,-2.26663 -1.028555,-1.06665 -5.428485,-2.895192 -6.9141749,-2.933286 -6.9141749,-8.533197 0,-4.11422 3.1237595,-6.38085 3.1428064,-2.285678 8.3046294,-2.285678 4.32374,0 7.257026,1.123792 v 5.904667 q -2.971381,-2.019015 -6.952269,-2.019015 -2.323773,0 -3.714227,0.857129 -1.390454,0.838082 -1.390454,2.266631 0,1.142838 0.952366,2.114251 0.952366,0.952366 4.704687,2.590435 4.399929,1.885684 6.037998,3.980889 1.657117,2.095204 1.657117,4.990396 0,4.247551 -3.009476,6.476087 -3.009476,2.228536 -8.552244,2.228536 -5.0665856,0 -8.304629,-1.638069 z m 50.744162,7.428452 V 46.838147 q 0,-2.476151 0.247615,-6.228472 h -0.152378 q -0.571419,2.83805 -0.914271,3.790416 l -7.276074,20.342531 h -5.009444 l -7.37131,-20.152058 q -0.266663,-0.723798 -0.933319,-3.980889 h -0.171426 q 0.247615,3.714226 0.247615,7.4475 V 64.742622 H 29.457473 V 35.238333 h 9.142711 l 6.361803,17.828286 q 0.799987,2.209488 1.085696,4.152314 h 0.133332 q 0.590466,-2.419009 1.219028,-4.190409 l 6.38085,-17.790191 h 8.895096 v 29.504289 z m 12.02097,0 V 35.238333 h 10.190314 q 15.714034,0 15.714034,14.380722 0,6.837986 -4.39993,10.9903 -4.399929,4.133267 -11.352199,4.133267 z m 6.285614,-24.361515 v 19.218741 h 3.428517 q 4.476119,0 7.028459,-2.666624 2.55234,-2.666624 2.55234,-7.218933 0,-4.399929 -2.666624,-6.857033 -2.666624,-2.476151 -6.933223,-2.476151 z"
       id="text3"
       style="font-weight:bold;font-size:39.0089px;line-height:273.027px;font-family:'Microsoft YaHei UI';-inkscape-font-specification:'Microsoft YaHei UI Bold';letter-spacing:-1.08358px;stroke-width:1.98403"
       aria-label="SMD" />
  </g>
</svg>
