<?xml version="1.0" encoding="UTF-8" standalone="no"?>
<!-- Created with Inkscape (http://www.inkscape.org/) -->

<svg
   version="1.1"
   id="svg1"
   width="150"
   height="150"
   viewBox="0 0 150 150"
   sodipodi:docname="logo.svg"
   inkscape:export-filename="C:\Users\Lenovo\Desktop\android-chrome-512x512.svg"
   inkscape:export-xdpi="96"
   inkscape:export-ydpi="96"
   inkscape:version="1.4 (86a8ad7, 2024-10-11)"
   xmlns:inkscape="http://www.inkscape.org/namespaces/inkscape"
   xmlns:sodipodi="http://sodipodi.sourceforge.net/DTD/sodipodi-0.dtd"
   xmlns="http://www.w3.org/2000/svg"
   xmlns:svg="http://www.w3.org/2000/svg">
  <defs
     id="defs1" />
  <sodipodi:namedview
     id="namedview1"
     pagecolor="#ffffff"
     bordercolor="#000000"
     borderopacity="0.25"
     inkscape:showpageshadow="2"
     inkscape:pageopacity="0.0"
     inkscape:pagecheckerboard="0"
     inkscape:deskcolor="#ffffff"
     inkscape:export-bgcolor="#ffffff00"
     inkscape:zoom="1"
     inkscape:cx="291"
     inkscape:cy="70.5"
     inkscape:window-width="1920"
     inkscape:window-height="991"
     inkscape:window-x="-9"
     inkscape:window-y="-9"
     inkscape:window-maximized="1"
     inkscape:current-layer="g19"
     showgrid="false" />
  <g
     inkscape:groupmode="layer"
     inkscape:label="Image"
     id="g1">
    <g
       id="g19"
       transform="translate(-181.00148,24.247315)">
      <g
         id="g2"
         transform="translate(-1)">
        <path
           d="m 278.50305,13.000005 a 37.751438,37.751438 0 0 0 -37.75144,37.751438 37.751438,37.751438 0 0 0 0.21199,2.967763 32.088722,32.088722 0 0 1 31.87674,-29.393769 32.088722,32.088722 0 0 1 32.08872,32.088722 32.088722,32.088722 0 0 1 -29.39377,31.876738 37.751438,37.751438 0 0 0 2.96776,0.211984 37.751438,37.751438 0 0 0 37.75144,-37.751438 37.751438,37.751438 0 0 0 -37.75144,-37.751438 z"
           style="stroke-width:0.439334"
           id="path18" />
        <path
           d="m 230.50705,88.173737 a 37.751438,37.751438 0 0 0 42.41269,-32.426941 37.751438,37.751438 0 0 0 0.18238,-2.969724 32.088722,32.088722 0 0 1 -35.48424,24.919653 32.088722,32.088722 0 0 1 -27.56289,-36.050781 32.088722,32.088722 0 0 1 33.35147,-27.709202 37.751438,37.751438 0 0 0 -2.91367,-0.602623 37.751438,37.751438 0 0 0 -42.41269,32.426936 37.751438,37.751438 0 0 0 32.42695,42.412677 z"
           style="stroke-width:0.439334"
           id="path18-4" />
      </g>
    </g>
  </g>
</svg>
