<svg t="1741589944154" class="icon" viewBox="0 0 1024 1024" version="1.1" xmlns="http://www.w3.org/2000/svg" p-id="6323" width="200" height="200"><path d="M884.224 527.872l-141.824 8.192v-22.528l-68.608 3.584v22.528l-141.824 7.68v45.056l141.824-8.192v98.816l68.608-3.584v-98.816l141.824-7.68z" fill="currentColor" p-id="6324"></path><path d="M816.128 38.4H206.336C113.152 38.4 38.4 113.664 38.4 206.848v609.792c0 92.672 75.264 168.448 168.448 168.448h609.792c93.184 0 168.448-75.776 168.448-168.448V206.848c-0.512-93.184-75.776-168.448-168.96-168.448zM978.432 778.24l-931.84 52.736c-0.512-4.608-0.512-9.728-0.512-14.336V241.664l931.84-49.152c0.512 4.608 0.512 9.728 0.512 14.336V778.24z" fill="currentColor" p-id="6325"></path><path d="M299.008 514.048L243.712 443.904l-74.752 4.096 54.784 69.632zM299.008 426.496L243.712 356.864l-74.752 4.608 54.784 69.632zM370.176 590.848l54.272 106.496 75.264-3.584-53.76-106.496zM532.48 692.224l68.608-4.096 45.568-88.064-68.608 3.584zM779.264 591.872l49.664 82.944 68.608-3.584-50.176-82.944zM624.128 367.104l186.368-10.24v10.752l-103.936 51.2-80.896-30.208-27.136 41.472 47.616 17.92-81.92 40.448-32.256 1.536v45.056l48.64-2.56L706.56 470.016l128 47.616 49.664-2.56v-45.056l-32.768 2.56-84.48-31.232 112.64-55.296V307.712l-68.608 3.584-157.696 9.216-54.272-26.112-70.144 110.592 57.856 20.992z" fill="currentColor" p-id="6326"></path><path d="M490.496 526.848l-83.968 5.12V334.336l-68.608 4.096v197.12l-199.68 11.264v45.056l138.752-8.192-61.44 80.896-75.264 4.608v45.056l126.464-7.68 97.28-127.488 126.464-7.168z" fill="currentColor" p-id="6327"></path></svg>